Knuckleball 2012 WEBRip x264 AAC-PLAYNOW

GENRAL iNF0
Complete name : Knuckleball 2012 WEBRip x264 AAC-PLAYNOW.mp4
iMDB : http://www.imdb.com/title/tt2343601/
Format : MPEG-4
Format profile : Base Media / Version 2
Codec ID : mp42
File size : 756 MiB
Duration : 1h 33mn
Overall bit rate mode : Variable
Overall bit rate : 1 127 Kbps
Encoded date : UTC 2012-12-05 22:41:24
Tagged date : UTC 2012-12-05 23:22:44
Writing application : HandBrake 0.9.8 2012071700
ViDE0 iNF0
ID : 1
Format : AVC
Format/Info : Advanced Video Codec
Format profile : Main@L3.0
Format settings, CABAC : Yes
Format settings, ReFrames : 4 frames
Codec ID : avc1
Codec ID/Info : Advanced Video Coding
Duration : 1h 33mn
Bit rate mode : Variable
Bit rate : 967 Kbps
Width : 720 pixels
Height : 304 pixels
Display aspect ratio : 2.35:1
Frame rate mode : Variable
Frame rate : 23.976 fps
Minimum frame rate : 23.810 fps
Maximum frame rate : 24.390 fps
Color space : YUV
Chroma subsampling : 4:2:0
Bit depth : 8 bits
Scan type : Progressive
Bits/(Pixel*Frame) : 0.184
Stream size : 649 MiB (86%)
Writing library : x264 core 120
Encoded date : UTC 2012-12-05 22:41:24
Tagged date : UTC 2012-12-05 23:22:42
Color primaries : BT.709-5, BT.1361, IEC 61966-2-4, SMPTE RP177
Transfer characteristics : BT.709-5, BT.1361
Matrix coefficients : BT.709-5, BT.1361, IEC 61966-2-4 709, SMPTE RP177
AUDi0 iNF0
ID : 2
Format : AAC
Format/Info : Advanced Audio Codec
Format profile : LC
Codec ID : 40
Duration : 1h 33mn
Bit rate mode : Variable
Bit rate : 154 Kbps
Maximum bit rate : 166 Kbps
Channel(s) : 2 channels
Channel positions : Front: L R
Sampling rate : 48.0 KHz
Compression mode : Lossy
Delay relative to video : -83ms
Stream size : 103 MiB (14%)
Language : English
Encoded date : UTC 2012-12-05 22:41:24
Tagged date : UTC 2012-12-05 23:22:41

 
http://www.shotpix.com/images/64513794583044140168.png 
http://www.shotpix.com/images/23934068088412634245.png